<svg id="Layer_1" height="512" viewBox="0 0 512 512" width="512" xmlns="http://www.w3.org/2000/svg" data-name="Layer 1"><path d="m504 512v-33.805l-56-126.195h-384l-56 120v40" fill="#cce9ea"/><path d="m200 264v104l56 32 56-32v-104z" fill="#ea8e50"/><path d="m200 329.347c52.244 18.922 94.943-7.19 112-20.387v-36.96h-112z" fill="#ea8e50"/><path d="m330.413 260.789-45.919 39.359a16 16 0 0 1 -10.413 3.852h-36.162a16 16 0 0 1 -10.413-3.852l-45.919-39.359a16 16 0 0 1 -5.587-12.148v-200.641h160v200.641a16 16 0 0 1 -5.587 12.148z" fill="#f7ac79"/><g opacity=".2"><path d="m291.016 294.557-53.421-38.852a50.121 50.121 0 0 1 -20.607-42.389v-165.316h-40.988v200.641a16 16 0 0 0 5.587 12.148l40.915 35.07 5 4.289a16 16 0 0 0 10.416 3.852h36.162a16 16 0 0 0 10.412-3.851z" fill="#f9f2ed"/></g><path d="m176 216-24-24v-48l24 8z" fill="#ef9a60"/><path d="m336 216 24-16v-56l-24 8z" fill="#ef9a60"/><path d="m208 48-32 16v48c24-16 32-64 32-64z" fill="#3f5c72"/><path d="m336 112v-48l-32-16s8 48 32 64z" fill="#3f5c72"/><path d="m218.057 8h75.887a42.057 42.057 0 0 1 42.056 42.057v13.943a0 0 0 0 1 0 0h-160a0 0 0 0 1 0 0v-13.943a42.057 42.057 0 0 1 42.057-42.057z" fill="#cce9ea"/><path d="m312 368-56 32-56-32v-48l56 32 56-32z" fill="#b0cccc"/><path d="m238.148 23.141 37.852-15.141h-57.943a42.057 42.057 0 0 0 -42.057 42.057v13.943h40v-8.146a35.234 35.234 0 0 1 22.148-32.713z" fill="#e1f9f9"/><path d="m8 472v3.864c20.241-8.384 40.86-22.091 59.316-40.548 25.857-25.857 42.4-55.956 48.029-83.316h-51.345z" fill="#e1f9f9"/><path d="m234.343 133.657 11.314-11.314-8-8a8 8 0 0 0 -5.657-2.343h-32v16h28.687z"/><path d="m283.313 128h28.687v-16h-32a8 8 0 0 0 -5.657 2.343l-8 8 11.314 11.314z"/><path d="m511.313 474.949-56-126.194a8 8 0 0 0 -7.313-4.755h-128v-63.749l15.62-13.389a23.975 23.975 0 0 0 8.38-18.221v-28.36l20.438-13.625a8 8 0 0 0 3.562-6.656v-56a8 8 0 0 0 -10.53-7.59l-13.47 4.49v-90.843a50.113 50.113 0 0 0 -50.057-50.057h-75.886a50.113 50.113 0 0 0 -50.057 50.057v90.843l-13.47-4.49a8 8 0 0 0 -10.53 7.59v48a8 8 0 0 0 2.343 5.657l21.657 21.657v29.326a23.976 23.976 0 0 0 8.381 18.223l15.619 13.388v63.749h-128a8 8 0 0 0 -7.249 4.617l-56 120a7.985 7.985 0 0 0 -.751 3.383v40h16v-38.226l53.095-113.774h122.905v8a8 8 0 0 0 4.031 6.946l51.969 29.697v107.357h16v-107.357l51.969-29.7a8 8 0 0 0 4.031-6.943v-8h122.8l53.2 119.89v32.11h16v-33.806a8 8 0 0 0 -.687-3.245zm-183.313-381.119a88.937 88.937 0 0 1 -12.756-21.83h12.756zm24 61.27v40.619l-8 5.333v-43.286zm-168-105.043a34.1 34.1 0 0 1 34.057-34.057h75.887a34.1 34.1 0 0 1 34.056 34.057v5.943h-144zm0 21.943h12.783a88.039 88.039 0 0 1 -12.783 21.862zm-24 116.687v-33.587l8 2.666v38.921zm24 59.954v-132.557c17.518-13.454 26.382-33.953 29.894-44.084h84.211c3.513 10.131 12.376 30.63 29.894 44.084v132.557a7.993 7.993 0 0 1 -2.793 6.074l-45.92 39.359a8 8 0 0 1 -5.205 1.926h-36.162a8 8 0 0 1 -5.207-1.926l-45.918-39.358a7.994 7.994 0 0 1 -2.794-6.075zm38.3 57.582a24.014 24.014 0 0 0 15.619 5.777h36.162a24.011 24.011 0 0 0 15.618-5.777l14.301-12.258v21.393l-48 27.429-48-27.429v-21.392zm-14.3 57.134v-29.571l40 22.857v29.572zm56 22.857v-29.571l40-22.857v29.572z"/><path d="m208 144h16v16h-16z"/><path d="m288 144h16v16h-16z"/><path d="m285.657 237.657 8-8-11.314-11.314-5.656 5.657h-49.374l-5.656-5.657-11.314 11.314 8 8a8 8 0 0 0 5.657 2.343h56a8 8 0 0 0 5.657-2.343z"/><path d="m248 248h16v16h-16z"/><path d="m112 416h16v96h-16z"/><path d="m377 416h16v96h-16z"/><path d="m241.694 204.923a8 8 0 0 0 6.306 3.077h32v-16h-21.754l5.515-22.06a7.975 7.975 0 0 0 .239-1.94v-8h-16v7.015l-7.761 31.045a8 8 0 0 0 1.455 6.863z"/><path d="m288 456h16v16h-16z"/><path d="m288 496h16v16h-16z"/></svg>