<svg id="Layer_1" enable-background="new 0 0 511.996 511.996" height="512" viewBox="0 0 511.996 511.996" width="512" xmlns="http://www.w3.org/2000/svg"><g><path d="m433.931 372.569-4.305-3.956h-347.256l-4.305 3.956c-21.974 20.195-34.576 48.884-34.576 78.709v60.718h425.018v-60.718c0-29.825-12.603-58.513-34.576-78.709z" fill="#f30051"/><path d="m468.507 451.278c0-29.825-12.603-58.514-34.576-78.709l-4.305-3.956h-173.628v143.383h212.509z" fill="#be003b"/><path d="m431.008 303.566c-8.165-12.249-12.481-26.504-12.481-41.225v-99.813c-.001-89.618-72.911-162.528-162.529-162.528s-162.528 72.91-162.528 162.528v99.813c0 14.721-4.316 28.976-12.481 41.225-11.462 17.192-17.521 37.202-17.521 57.865v27.641l8.821 3.987c53.455 24.165 116.981 36.938 183.709 36.938s130.254-12.773 183.709-36.938l8.821-3.987v-27.641c0-20.662-6.058-40.672-17.52-57.865z" fill="#87556b"/><path d="m431.008 303.566c-8.165-12.249-12.481-26.504-12.481-41.225v-99.813c-.001-89.618-72.911-162.528-162.529-162.528v429.998c66.728 0 130.254-12.773 183.709-36.938l8.821-3.987v-27.641c0-20.663-6.058-40.673-17.52-57.866z" fill="#673351"/><path d="m160.168 113.431c-7.402 14.572-11.577 31.048-11.577 48.48v65.568c0 59.225 48.183 107.408 107.407 107.408s107.407-48.184 107.407-107.408v-65.568c0-17.432-4.175-33.908-11.577-48.48z" fill="#eecda1"/><path d="m363.405 227.479v-65.568c0-17.432-4.175-33.908-11.577-48.48h-95.83v221.457c59.225 0 107.407-48.184 107.407-107.409z" fill="#e8b36f"/><path d="m255.998 54.504c-52.925 0-97.031 38.477-105.816 88.927h211.632c-8.785-50.45-52.891-88.927-105.816-88.927z" fill="#673351"/><path d="m255.998 54.504v88.927h105.816c-8.785-50.45-52.891-88.927-105.816-88.927z" fill="#4a2239"/></g></svg>